<?xml version="1.0" encoding="utf-8"?>
<!-- Generator: Adobe Illustrator 22.1.0, SVG Export Plug-In . SVG Version: 6.00 Build 0)  -->
<svg version="1.1" id="Layer_1" xmlns="http://www.w3.org/2000/svg" xmlns:xlink="http://www.w3.org/1999/xlink" x="0px" y="0px"
	 viewBox="0 0 413 539.6" style="enable-background:new 0 0 413 539.6;" xml:space="preserve">
<style type="text/css">
	.st0{stroke:#000000;stroke-miterlimit:10;}
	.st1{fill:#010101;}
	.st2{fill:#FFFFFF;}
</style>
<path class="st0" d="M352.5,536.9L25.9,429.4C4.1,422.2-5.9,403,3.6,386.6l0,0c9.5-16.4,35.2-23.9,57-16.7l326.6,107.5
	c21.8,7.2,31.8,26.4,22.3,42.8l0,0C399.9,536.5,374.3,544.1,352.5,536.9z"/>
<path class="st1" d="M222.5,15.9c0-15.9-20.4-21.8-29.4-8.7c-82.5,120.7,34.8,126.1,34.8,184.7c0,23.7-19.4,43-43.2,42.7
	c-23.4-0.3-42.1-19.8-42.1-43.3v-57c0-14.5-17.6-21.5-27.6-11c-17.8,18.7-36.4,50.9-36.4,90c0,70.6,57.4,128,128,128
	s128-57.4,128-128C334.5,99.8,222.5,84.6,222.5,15.9z"/>
<g>
	<polygon points="86,453.4 206.6,413.7 327,453.4 206.5,493.1 	"/>
	<path class="st2" d="M206.6,417.9l107.7,35.5l-107.8,35.5L98.8,453.4L206.6,417.9 M206.6,409.5l-2.5,0.8L96.3,445.8l-23.1,7.6
		l23.1,7.6L204,496.5l2.5,0.8l2.5-0.8L316.8,461l23.1-7.6l-23.1-7.6l-107.7-35.5L206.6,409.5L206.6,409.5z"/>
</g>
<path d="M60.6,536.9l326.6-107.5c21.8-7.2,31.8-26.4,22.3-42.8l0,0c-9.5-16.4-35.2-23.9-57-16.7L25.9,477.4
	c-21.8,7.2-31.8,26.4-22.3,42.8l0,0C13.2,536.5,38.8,544.1,60.6,536.9z"/>
</svg>
